# xmcd
#
# Track frame offsets:
#	150
#	16170
#	30000
#	49435
#	61590
#	75835
#	89220
#	107550
#	125400
#	142020
#	161280
#	174785
#
# Disc length: 2530 seconds
#
# Revision: 1
# Processed by: cddbd v1.5.2PL0 Copyright (c) Steve Scherf et al.
# Submitted via: audiograbber 1.83.01
#
DISCID=8409e00c
DTITLE=Silicon Cowboy - Glaze, Rick and The Virtual Wafer Hot Band
DYEAR=2000
DGENRE=Country
TTITLE0=My Dot Com
TTITLE1=Virtual Love
TTITLE2=Oscar Hammerstein
TTITLE3=Loving You
TTITLE4=If You Lost Somebody
TTITLE5=Don't Try to Hold Me One Last Time
TTITLE6=Beach Down in the Islands
TTITLE7=Over
TTITLE8=Should Have Known Better
TTITLE9=One More Tear
TTITLE10=Mississippi Goodbye
TTITLE11=Woman Can Bring, A
EXTD=
EXTT0=
EXTT1=
EXTT2=
EXTT3=
EXTT4=
EXTT5=
EXTT6=
EXTT7=
EXTT8=
EXTT9=
EXTT10=
EXTT11=
PLAYORDER=
